<svg width="172" height="28" viewBox="0 0 172 28" fill="none" xmlns="http://www.w3.org/2000/svg">
<g clip-path="url(#clip0_8186_25777)">
<circle cx="14" cy="14" r="14" fill="#FFD951"/>
<path d="M19.5284 8.29618C19.4168 8.18791 19.3 8.08701 19.1806 7.98612C18.2529 7.20602 17.1425 6.64672 15.9414 6.35456H15.9103C15.8091 6.32995 15.7104 6.31027 15.6092 6.29058L15.5469 6.27582L15.264 6.22906L15.1835 6.2143L14.924 6.1823H14.8254L14.5658 6.16016H14.4516H14.2076H13.8468C13.8027 6.16016 13.1954 6.19707 13.1227 6.20445L12.9722 6.22168C12.9021 6.22168 12.466 6.29796 12.3986 6.31273L12.0404 6.38901L11.9236 6.42101L11.5187 6.53667C11.4564 6.55635 11.0437 6.69908 10.9996 6.72369L10.8257 6.79506C10.7686 6.81721 10.5402 6.92056 10.4831 6.94763L10.3195 7.02638C10.2598 7.05591 10.0418 7.17403 9.98992 7.20356C9.93801 7.23309 9.87312 7.27247 9.81342 7.30692L9.66548 7.39551L9.48898 7.51363C9.44226 7.54316 9.39555 7.57269 9.35142 7.60468L9.16974 7.74003L9.04515 7.83108L9.014 7.85815L8.8453 7.9935L8.74667 8.07471C8.65063 8.15838 8.5546 8.24451 8.46116 8.32079C8.36772 8.39708 8.28986 8.48813 8.20161 8.56688C8.18344 8.58657 8.16787 8.60625 8.1497 8.62348C6.81708 10.0396 6.10638 11.8855 6.16333 13.7826C6.22028 15.6797 7.04056 17.4842 8.45597 18.8262L12.7204 22.8694L13.9974 24.0802L19.5414 18.8262C20.2712 18.1348 20.85 17.3136 21.2445 16.4096C21.6389 15.5057 21.8414 14.5369 21.8402 13.5586C21.8389 12.5804 21.6341 11.612 21.2374 10.709C20.8407 9.80594 20.26 8.98601 19.5284 8.29618Z" fill="white"/>
<circle cx="14" cy="14" r="4" fill="#FFB801"/>
</g>
<path d="M35 16.025C35 15.1103 35.1388 14.2528 35.4165 13.4525C35.6942 12.6358 36.0943 11.9335 36.617 11.3455C37.1397 10.7412 37.7685 10.2675 38.5035 9.9245C39.2548 9.5815 40.0878 9.41 41.0025 9.41C41.9172 9.41 42.742 9.5815 43.477 9.9245C44.2283 10.2512 44.8653 10.7003 45.388 11.272C45.9107 11.8273 46.3108 12.4888 46.5885 13.2565C46.8825 14.0078 47.0295 14.8 47.0295 15.633V16.7355C47.0295 16.9152 46.9642 17.0703 46.8335 17.201C46.7028 17.3317 46.5477 17.397 46.368 17.397H38.185C38.185 17.7727 38.2585 18.1075 38.4055 18.4015C38.5688 18.6792 38.7812 18.916 39.0425 19.112C39.3038 19.308 39.606 19.455 39.949 19.553C40.292 19.651 40.6432 19.7 41.0025 19.7C41.5252 19.7 41.9498 19.651 42.2765 19.553C42.6032 19.4387 42.8727 19.2998 43.085 19.1365C43.2647 19.0058 43.4117 18.916 43.526 18.867C43.6403 18.818 43.7955 18.7935 43.9915 18.7935H45.9515C46.1312 18.7935 46.2863 18.8588 46.417 18.9895C46.564 19.1202 46.6293 19.2753 46.613 19.455C46.5967 19.6837 46.466 19.9777 46.221 20.337C45.9923 20.6963 45.6412 21.0475 45.1675 21.3905C44.6938 21.7335 44.1058 22.0275 43.4035 22.2725C42.7175 22.5175 41.9172 22.64 41.0025 22.64C40.0878 22.64 39.2548 22.4848 38.5035 22.1745C37.7685 21.8478 37.1397 21.3905 36.617 20.8025C36.0943 20.2145 35.6942 19.5203 35.4165 18.72C35.1388 17.9033 35 17.005 35 16.025ZM41.0025 12.35C40.5288 12.35 40.1205 12.4235 39.7775 12.5705C39.4508 12.7012 39.1732 12.8808 38.9445 13.1095C38.7158 13.3218 38.5362 13.5668 38.4055 13.8445C38.2912 14.1058 38.2177 14.359 38.185 14.604H43.722C43.6893 14.359 43.624 14.1058 43.526 13.8445C43.4443 13.5668 43.2973 13.3218 43.085 13.1095C42.889 12.8808 42.6195 12.7012 42.2765 12.5705C41.9498 12.4235 41.5252 12.35 41.0025 12.35Z" fill="#515151"/>
<path d="M60.1914 21.7335C60.1914 21.9132 60.126 22.0683 59.9954 22.199C59.8647 22.3297 59.7095 22.395 59.5299 22.395H57.6679C57.4882 22.395 57.333 22.3297 57.2024 22.199C57.0717 22.0683 57.0064 21.9132 57.0064 21.7335V15.5105C57.0064 14.5305 56.7777 13.7465 56.3204 13.1585C55.863 12.5705 55.1607 12.2765 54.2134 12.2765C53.3477 12.2765 52.6617 12.5705 52.1554 13.1585C51.6654 13.7465 51.4204 14.5305 51.4204 15.5105V21.7335C51.4204 21.9132 51.355 22.0683 51.2244 22.199C51.0937 22.3297 50.9385 22.395 50.7589 22.395H48.8969C48.7172 22.395 48.562 22.3297 48.4314 22.199C48.3007 22.0683 48.2354 21.9132 48.2354 21.7335V10.3165C48.2354 10.1368 48.3007 9.98167 48.4314 9.851C48.562 9.72033 48.7172 9.655 48.8969 9.655H50.7589C50.9385 9.655 51.0937 9.72033 51.2244 9.851C51.355 9.98167 51.4204 10.1368 51.4204 10.3165V10.88C51.845 10.4553 52.3432 10.1042 52.9149 9.8265C53.4865 9.54883 54.1644 9.41 54.9484 9.41C55.9447 9.41 56.7777 9.56517 57.4474 9.8755C58.117 10.1858 58.656 10.6023 59.0644 11.125C59.4727 11.6477 59.7585 12.2602 59.9219 12.9625C60.1015 13.6485 60.1914 14.3753 60.1914 15.143V21.7335Z" fill="#515151"/>
<path d="M65.1672 17.5195V21.7335C65.1672 21.9132 65.1018 22.0683 64.9712 22.199C64.8405 22.3297 64.6853 22.395 64.5057 22.395H62.6437C62.464 22.395 62.3088 22.3297 62.1782 22.199C62.0475 22.0683 61.9822 21.9132 61.9822 21.7335V5.6615C61.9822 5.48183 62.0475 5.32667 62.1782 5.196C62.3088 5.06533 62.464 5 62.6437 5H64.5057C64.6853 5 64.8405 5.06533 64.9712 5.196C65.1018 5.32667 65.1672 5.48183 65.1672 5.6615V13.379L69.2587 10.0715C69.3567 9.98983 69.4792 9.9 69.6262 9.802C69.7895 9.704 69.9855 9.655 70.2142 9.655H72.7132C72.8765 9.655 73.0153 9.71217 73.1297 9.8265C73.244 9.94083 73.3012 10.0797 73.3012 10.243C73.3012 10.3247 73.2848 10.4063 73.2522 10.488C73.2358 10.5533 73.1623 10.635 73.0317 10.733L67.3232 15.339L73.5707 21.3415C73.6687 21.4395 73.734 21.5212 73.7667 21.5865C73.7993 21.6518 73.8157 21.7253 73.8157 21.807C73.8157 21.9703 73.7585 22.1092 73.6442 22.2235C73.5298 22.3378 73.391 22.395 73.2277 22.395H70.8512C70.6062 22.395 70.3938 22.346 70.2142 22.248C70.0508 22.15 69.9283 22.0602 69.8467 21.9785L65.1672 17.5195Z" fill="#515151"/>
<path d="M79.0426 9.41C79.9409 9.41 80.7494 9.54883 81.4681 9.8265C82.2031 10.1042 82.8319 10.488 83.3546 10.978C83.8936 11.468 84.3182 12.0397 84.6286 12.693C84.9552 13.3463 85.1431 14.0487 85.1921 14.8C85.2084 14.947 85.2166 15.1348 85.2166 15.3635C85.2166 15.5922 85.2166 15.8208 85.2166 16.0495C85.2166 16.2782 85.2166 16.5068 85.2166 16.7355C85.2166 16.9478 85.2084 17.1275 85.1921 17.2745C85.1267 18.0258 84.9389 18.7282 84.6286 19.3815C84.3182 20.0348 83.8936 20.6065 83.3546 21.0965C82.8319 21.5702 82.2031 21.9458 81.4681 22.2235C80.7494 22.5012 79.9409 22.64 79.0426 22.64C78.1442 22.64 77.3276 22.5012 76.5926 22.2235C75.8739 21.9458 75.2451 21.5702 74.7061 21.0965C74.1834 20.6065 73.7669 20.0348 73.4566 19.3815C73.1462 18.7282 72.9584 18.0258 72.8931 17.2745C72.8767 17.1275 72.8604 16.9478 72.8441 16.7355C72.8441 16.5068 72.8441 16.2782 72.8441 16.0495C72.8441 15.8208 72.8441 15.5922 72.8441 15.3635C72.8604 15.1348 72.8767 14.947 72.8931 14.8C72.9421 14.0487 73.1217 13.3463 73.4321 12.693C73.7587 12.0397 74.1834 11.468 74.7061 10.978C75.2451 10.488 75.8739 10.1042 76.5926 9.8265C77.3276 9.54883 78.1442 9.41 79.0426 9.41ZM82.0071 14.9225C81.9581 14.4162 81.8356 13.9997 81.6396 13.673C81.4599 13.33 81.2312 13.0605 80.9536 12.8645C80.6759 12.6685 80.3737 12.5378 80.0471 12.4725C79.7204 12.3908 79.3856 12.35 79.0426 12.35C78.6996 12.35 78.3647 12.3908 78.0381 12.4725C77.7114 12.5378 77.4092 12.6685 77.1316 12.8645C76.8539 13.0605 76.6171 13.33 76.4211 13.673C76.2414 13.9997 76.1271 14.4162 76.0781 14.9225C76.0617 15.0532 76.0454 15.2165 76.0291 15.4125C76.0291 15.6085 76.0291 15.8127 76.0291 16.025C76.0291 16.2373 76.0291 16.4497 76.0291 16.662C76.0454 16.858 76.0617 17.0132 76.0781 17.1275C76.1271 17.6338 76.2414 18.0585 76.4211 18.4015C76.6171 18.7282 76.8539 18.9895 77.1316 19.1855C77.4092 19.3815 77.7114 19.5203 78.0381 19.602C78.3647 19.6673 78.6996 19.7 79.0426 19.7C79.3856 19.7 79.7204 19.6673 80.0471 19.602C80.3737 19.5203 80.6759 19.3815 80.9536 19.1855C81.2312 18.9895 81.4599 18.7282 81.6396 18.4015C81.8356 18.0585 81.9581 17.6338 82.0071 17.1275C82.0234 17.0132 82.0316 16.858 82.0316 16.662C82.0316 16.4497 82.0316 16.2373 82.0316 16.025C82.0316 15.8127 82.0316 15.6085 82.0316 15.4125C82.0316 15.2165 82.0234 15.0532 82.0071 14.9225Z" fill="#515151"/>
<path d="M92.4864 12.595C91.5064 12.595 90.7959 12.8155 90.3549 13.2565C89.9302 13.6812 89.7179 14.3835 89.7179 15.3635V21.7335C89.7179 21.9132 89.6525 22.0683 89.5219 22.199C89.3912 22.3297 89.236 22.395 89.0564 22.395H87.1944C87.0147 22.395 86.8595 22.3297 86.7289 22.199C86.5982 22.0683 86.5329 21.9132 86.5329 21.7335V10.3165C86.5329 10.1368 86.5982 9.98167 86.7289 9.851C86.8595 9.72033 87.0147 9.655 87.1944 9.655H89.0564C89.236 9.655 89.3912 9.72033 89.5219 9.851C89.6525 9.98167 89.7179 10.1368 89.7179 10.3165V10.88C90.1425 10.488 90.5917 10.1858 91.0654 9.9735C91.5554 9.76117 92.1924 9.655 92.9764 9.655H94.0789C94.2585 9.655 94.4137 9.72033 94.5444 9.851C94.675 9.98167 94.7404 10.1368 94.7404 10.3165V11.9335C94.7404 12.1132 94.675 12.2683 94.5444 12.399C94.4137 12.5297 94.2585 12.595 94.0789 12.595H92.4864Z" fill="#515151"/>
<path d="M107.749 17.25L109.954 10.243C110.003 10.1123 110.068 9.98167 110.15 9.851C110.248 9.72033 110.411 9.655 110.64 9.655H112.502C112.682 9.655 112.837 9.72033 112.968 9.851C113.098 9.98167 113.164 10.1368 113.164 10.3165C113.164 10.3818 113.155 10.439 113.139 10.488L109.44 21.7825C109.391 21.9295 109.317 22.0683 109.219 22.199C109.121 22.3297 108.958 22.395 108.729 22.395H106.867C106.638 22.395 106.475 22.3297 106.377 22.199C106.295 22.0683 106.222 21.9295 106.157 21.7825L103.78 15.241L101.404 21.7825C101.338 21.9295 101.257 22.0683 101.159 22.199C101.077 22.3297 100.922 22.395 100.693 22.395H98.8311C98.6024 22.395 98.4391 22.3297 98.3411 22.199C98.2431 22.0683 98.1696 21.9295 98.1206 21.7825L94.4211 10.488C94.4048 10.439 94.3966 10.3818 94.3966 10.3165C94.3966 10.1368 94.4619 9.98167 94.5926 9.851C94.7233 9.72033 94.8784 9.655 95.0581 9.655H96.9201C97.1488 9.655 97.3039 9.72033 97.3856 9.851C97.4836 9.98167 97.5571 10.1123 97.6061 10.243L99.8111 17.25L102.163 10.243C102.196 10.1123 102.269 9.98167 102.384 9.851C102.514 9.72033 102.669 9.655 102.849 9.655H104.711C104.891 9.655 105.038 9.72033 105.152 9.851C105.283 9.98167 105.364 10.1123 105.397 10.243L107.749 17.25Z" fill="#515151"/>
<path d="M117.355 21.7335C117.355 21.9132 117.29 22.0683 117.159 22.199C117.028 22.3297 116.873 22.395 116.694 22.395H114.832C114.652 22.395 114.497 22.3297 114.366 22.199C114.235 22.0683 114.17 21.9132 114.17 21.7335V10.3165C114.17 10.1368 114.235 9.98167 114.366 9.851C114.497 9.72033 114.652 9.655 114.832 9.655H116.694C116.873 9.655 117.028 9.72033 117.159 9.851C117.29 9.98167 117.355 10.1368 117.355 10.3165V21.7335ZM116.816 5C116.996 5 117.151 5.06533 117.282 5.196C117.412 5.32667 117.478 5.48183 117.478 5.6615V7.5725C117.478 7.75217 117.412 7.90733 117.282 8.038C117.151 8.16867 116.996 8.234 116.816 8.234H114.709C114.529 8.234 114.374 8.16867 114.244 8.038C114.113 7.90733 114.048 7.75217 114.048 7.5725V5.6615C114.048 5.48183 114.113 5.32667 114.244 5.196C114.374 5.06533 114.529 5 114.709 5H116.816Z" fill="#515151"/>
<path d="M123.543 17.789C123.543 18.2953 123.674 18.7037 123.935 19.014C124.213 19.308 124.719 19.455 125.454 19.455H126.949C127.128 19.455 127.284 19.5203 127.414 19.651C127.545 19.7817 127.61 19.9368 127.61 20.1165V21.7335C127.61 21.9132 127.545 22.0683 127.414 22.199C127.284 22.3297 127.128 22.395 126.949 22.395H125.136C123.6 22.395 122.416 22.0275 121.583 21.2925C120.767 20.5412 120.358 19.3978 120.358 17.8625V12.595H118.741C118.562 12.595 118.406 12.5297 118.276 12.399C118.145 12.2683 118.08 12.1132 118.08 11.9335V10.3165C118.08 10.1368 118.145 9.98167 118.276 9.851C118.406 9.72033 118.562 9.655 118.741 9.655H120.358V5.6615C120.358 5.48183 120.424 5.32667 120.554 5.196C120.685 5.06533 120.84 5 121.02 5H122.882C123.061 5 123.217 5.06533 123.347 5.196C123.478 5.32667 123.543 5.48183 123.543 5.6615V9.655H126.704C126.883 9.655 127.039 9.72033 127.169 9.851C127.3 9.98167 127.365 10.1368 127.365 10.3165V11.9335C127.365 12.1132 127.3 12.2683 127.169 12.399C127.039 12.5297 126.883 12.595 126.704 12.595H123.543V17.789Z" fill="#515151"/>
<path d="M140.508 21.7335C140.508 21.9132 140.443 22.0683 140.312 22.199C140.182 22.3297 140.026 22.395 139.847 22.395H137.985C137.805 22.395 137.65 22.3297 137.519 22.199C137.389 22.0683 137.323 21.9132 137.323 21.7335V15.5105C137.323 14.5305 137.095 13.7465 136.637 13.1585C136.18 12.5705 135.478 12.2765 134.53 12.2765C133.665 12.2765 132.979 12.5705 132.472 13.1585C131.982 13.7465 131.737 14.5305 131.737 15.5105V21.7335C131.737 21.9132 131.672 22.0683 131.541 22.199C131.411 22.3297 131.255 22.395 131.076 22.395H129.214C129.034 22.395 128.879 22.3297 128.748 22.199C128.618 22.0683 128.552 21.9132 128.552 21.7335V5.6615C128.552 5.48183 128.618 5.32667 128.748 5.196C128.879 5.06533 129.034 5 129.214 5H131.076C131.255 5 131.411 5.06533 131.541 5.196C131.672 5.32667 131.737 5.48183 131.737 5.6615V10.88C132.162 10.4553 132.66 10.1042 133.232 9.8265C133.803 9.54883 134.481 9.41 135.265 9.41C136.262 9.41 137.095 9.56517 137.764 9.8755C138.434 10.1858 138.973 10.6023 139.381 11.125C139.79 11.6477 140.075 12.2602 140.239 12.9625C140.418 13.6485 140.508 14.3753 140.508 15.143V21.7335Z" fill="#515151"/>
<path d="M142.177 10.3165C142.177 10.1368 142.242 9.98167 142.373 9.851C142.503 9.72033 142.658 9.655 142.838 9.655H144.7C144.88 9.655 145.035 9.72033 145.166 9.851C145.296 9.98167 145.362 10.1368 145.362 10.3165V16.5395C145.362 17.5195 145.566 18.3035 145.974 18.8915C146.399 19.4795 147.085 19.7735 148.032 19.7735C148.898 19.7735 149.559 19.4795 150.017 18.8915C150.474 18.3035 150.703 17.5195 150.703 16.5395V10.3165C150.703 10.1368 150.768 9.98167 150.899 9.851C151.029 9.72033 151.184 9.655 151.364 9.655H153.226C153.406 9.655 153.561 9.72033 153.692 9.851C153.822 9.98167 153.888 10.1368 153.888 10.3165V21.7335C153.888 21.9132 153.822 22.0683 153.692 22.199C153.561 22.3297 153.406 22.395 153.226 22.395H151.364C151.184 22.395 151.029 22.3297 150.899 22.199C150.768 22.0683 150.703 21.9132 150.703 21.7335V21.17C150.327 21.5457 149.861 21.8887 149.306 22.199C148.751 22.493 148.081 22.64 147.297 22.64C146.301 22.64 145.476 22.4848 144.823 22.1745C144.169 21.8642 143.647 21.4477 143.255 20.925C142.863 20.4023 142.585 19.798 142.422 19.112C142.258 18.4097 142.177 17.6747 142.177 16.907V10.3165Z" fill="#515151"/>
<path d="M162.74 18.7445C162.74 18.5648 162.683 18.4178 162.569 18.3035C162.454 18.1892 162.25 18.083 161.956 17.985C161.678 17.887 161.303 17.789 160.829 17.691C160.355 17.593 159.751 17.4623 159.016 17.299C158.297 17.1357 157.701 16.9315 157.228 16.6865C156.754 16.4415 156.37 16.1557 156.076 15.829C155.798 15.5023 155.602 15.1348 155.488 14.7265C155.374 14.3018 155.317 13.8445 155.317 13.3545C155.317 12.8645 155.431 12.3827 155.66 11.909C155.888 11.4353 156.215 11.0188 156.64 10.6595C157.081 10.2838 157.611 9.98167 158.232 9.753C158.853 9.52433 159.563 9.41 160.364 9.41C161.164 9.41 161.874 9.49983 162.495 9.6795C163.132 9.85917 163.671 10.096 164.112 10.39C164.553 10.684 164.896 11.027 165.141 11.419C165.386 11.7947 165.525 12.1785 165.558 12.5705C165.574 12.7502 165.509 12.9053 165.362 13.036C165.231 13.1667 165.076 13.232 164.896 13.232H163.01C162.765 13.232 162.577 13.1912 162.446 13.1095C162.332 13.0115 162.201 12.9053 162.054 12.791C161.907 12.6767 161.711 12.5787 161.466 12.497C161.221 12.399 160.854 12.35 160.364 12.35C159.874 12.35 159.441 12.4235 159.065 12.5705C158.689 12.7175 158.502 12.9788 158.502 13.3545C158.502 13.5342 158.542 13.6893 158.624 13.82C158.722 13.9343 158.894 14.0405 159.139 14.1385C159.4 14.2365 159.751 14.3427 160.192 14.457C160.649 14.555 161.237 14.6775 161.956 14.8245C163.41 15.1348 164.431 15.6248 165.019 16.2945C165.623 16.9478 165.925 17.7645 165.925 18.7445C165.925 19.2345 165.803 19.7163 165.558 20.19C165.313 20.6473 164.953 21.0638 164.48 21.4395C164.022 21.7988 163.451 22.0928 162.765 22.3215C162.095 22.5338 161.335 22.64 160.486 22.64C159.62 22.64 158.853 22.542 158.183 22.346C157.53 22.1337 156.974 21.8642 156.517 21.5375C156.06 21.2108 155.709 20.8433 155.464 20.435C155.219 20.0267 155.088 19.6265 155.072 19.2345C155.055 19.0548 155.112 18.8997 155.243 18.769C155.39 18.6383 155.553 18.573 155.733 18.573H157.62C157.865 18.573 158.044 18.6302 158.159 18.7445C158.289 18.8588 158.428 18.9895 158.575 19.1365C158.738 19.2835 158.959 19.4142 159.237 19.5285C159.514 19.6428 159.931 19.7 160.486 19.7C160.731 19.7 160.984 19.6837 161.246 19.651C161.507 19.6183 161.744 19.5693 161.956 19.504C162.185 19.4223 162.373 19.3243 162.52 19.21C162.667 19.0793 162.74 18.9242 162.74 18.7445Z" fill="#515151"/>
<defs>
<clipPath id="clip0_8186_25777">
<rect width="28" height="28" fill="white"/>
</clipPath>
</defs>
</svg>
